<svg xmlns="http://www.w3.org/2000/svg" xmlns:xlink="http://www.w3.org/1999/xlink">
  <defs>
    <symbol id="14x14_histogram" height="14" viewBox="0 0 14 14" width="14">
      <path d="M9 11V5h2v6H9zM6 3h2v8H6V3zM3 7h2v4H3V7z"></path>
    </symbol>
    <symbol id="14x14_pencil" height="14" viewBox="0 0 14 14" width="14">
      <path d="M12.95 3.05c0-.512-.195-1.023-.586-1.414a1.996 1.996 0 0 0-2.83 0L8.122 3.05 2.465 8.707 1.05 12.95l4.243-1.414L10.95 5.88l1.414-1.416c.39-.39.586-.902.586-1.414zm-8.197 7.61l-2.122.71.71-2.123 5.49-5.49 1.415 1.415-5.49 5.49z"></path>
    </symbol>
    <symbol id="14x14_triangle_down" height="14" viewBox="0 0 14 14" width="14">
      <path d="M7 9L3.5 5h7L7 9z"></path>
    </symbol>
    <symbol id="14x14_save" height="14" viewBox="0 0 14 14" width="14">
      <path d="M9 1H5a2 2 0 0 0-2 2v10l4-3 4 3V3a2 2 0 0 0-2-2z"></path>
    </symbol>
    <symbol id="18x18_suitcase" height="18" viewBox="0 0 18 18" width="18">
      <path d="M14 15V6h2v9h-2zM5 6h1V2h6v4h1v9H5V6zm2 0h4V3H7v3zM2 6h2v9H2V6z"></path>
    </symbol>
    <symbol id="18x18_add_photo" height="18" viewBox="0 0 18 18" width="18">
      <path d="M15 15H3a2 2 0 0 1-2-2V6a2 2 0 0 1 2-2h2a2 2 0 0 1 2-2h4a2 2 0 0 1 2 2h2a2 2 0 0 1 2 2v7a2 2 0 0 1-2 2zM9 4.75a4.25 4.25 0 1 0 0 8.5 4.25 4.25 0 0 0 0-8.5zM11 10h-1v1a1 1 0 0 1-2 0v-1H7a1 1 0 0 1 0-2h1V7a1 1 0 0 1 2 0v1h1a1 1 0 0 1 0 2z"></path>
    </symbol>
    <symbol id="18x18_bookmark" height="18" viewBox="0 0 18 18" width="18">
      <path d="M14 2H4v14l5-4 5 4V2zm-3.13 7.957L8.978 8.794 7.148 10 7.5 7.926 6 6.458l2.074-.303L8.977 4l.948 2.155L12 6.458l-1.5 1.468.37 2.03z"></path>
    </symbol>
    <symbol id="18x18_checkmark_badged" height="18" viewBox="0 0 18 18" width="18">
      <path d="M9 1a8 8 0 1 0 0 16A8 8 0 0 0 9 1zm3.96 6.28l-4.808 4.807-3.112-3.11a.8.8 0 1 1 1.13-1.132l1.982 1.98 3.677-3.677a.8.8 0 1 1 1.13 1.13z"></path>
    </symbol>
    <symbol id="18x18_directions" height="18" viewBox="0 0 18 18" width="18">
      <path d="M16.444 7.556l-5.957-5.958a2.145 2.145 0 0 0-3.034 0L1.598 7.453a2.145 2.145 0 0 0 0 3.034l5.958 5.957a2 2 0 0 0 2.828 0l6.06-6.06a2 2 0 0 0 0-2.828zM9.97 11.47v-2.5h-3v3h-1v-4h4v-2.5l3 3-3 3z"></path>
    </symbol>
    <symbol id="18x18_external_link" height="18" viewBox="0 0 18 18" width="18">
      <path d="M14 15H4c-.55 0-1-.45-1-1V4c0-.55.45-1 1-1h3v1H4v10h10v-3h1v3c0 .55-.45 1-1 1zm-5.12-4.465L7.463 9.12l3.83-3.827L9 3h6v6l-2.293-2.293-3.828 3.828z"></path>
    </symbol>
    <symbol id="18x18_grid" height="18" viewBox="0 0 18 18" width="18">
      <path d="M10 15v-5h5v5h-5zm0-12h5v5h-5V3zm-7 7h5v5H3v-5zm0-7h5v5H3V3z"></path>
    </symbol>
    <symbol id="18x18_share" height="18" viewBox="0 0 18 18" width="18">
      <path d="M17.714 6.43L13 10.356v-3.03c-1 0-5.097 1.47-6.286 3.62.274-3.08 4.286-5.5 6.286-5.5V2.5l4.714 3.93zM3 4v10h11v-2.5l1-1V15H2V3h8.5l-1 1H3z"></path>
    </symbol>
    <symbol id="18x18_marker" height="18" viewBox="0 0 18 18" width="18">
      <path d="M14 7A5 5 0 0 0 4 7c0 1.97 1.15 3.658 2.806 4.472h-.17L9 16l2.363-4.528h-.17C12.85 10.658 14 8.97 14 7zM9 5a2 2 0 1 1 0 4 2 2 0 0 1 0-4z"></path>
    </symbol>
    <symbol id="18x18_mobile" height="16" viewBox="0 0 10 16" width="10">
      <path d="M9 16H1a1 1 0 0 1-1-1V1a1 1 0 0 1 1-1h8a1 1 0 0 1 1 1v14a1 1 0 0 1-1 1zM9 2.463A.463.463 0 0 0 8.537 2H1.463A.463.463 0 0 0 1 2.463v11.074c0 .256.207.463.463.463h7.074A.463.463 0 0 0 9 13.537V2.463zM5 13.5a1.15 1.15 0 1 1 0-2.3 1.15 1.15 0 0 1 0 2.3z"></path>
    </symbol>
    <symbol id="18x18_phone" height="18" viewBox="0 0 18 18" width="18">
      <path d="M15.862 12.526l-2.91-1.68a.442.442 0 0 0-.486.087l-1.58 1.687a.857.857 0 0 1-.52.232s-1.083.03-3.13-1.985c-2.046-2.015-2.054-3.12-2.054-3.12 0-.17.094-.41.21-.533L6.85 5.656a.49.49 0 0 0 .08-.504L5.295 2.14c-.073-.155-.228-.18-.345-.058L2.26 4.924a1.07 1.07 0 0 0-.248.53s-.34 2.927 3.75 6.955c4.093 4.025 6.96 3.59 6.96 3.59.167-.027.4-.148.516-.27l2.684-2.845c.117-.123.09-.285-.062-.36z"></path>
    </symbol>
    <symbol id="18x18_play_badged" height="18" viewBox="0 0 18 18" width="18">
      <path d="M9 16A7 7 0 1 1 9 2a7 7 0 0 1 0 14zM9 3a6 6 0 1 0 0 12A6 6 0 0 0 9 3zM7 6l5 3-5 3V6z"></path>
    </symbol>
    <symbol id="18x18_speech" height="18" viewBox="0 0 18 18" width="18">
      <path d="M2 4v6a2 2 0 0 0 2 2h1v3l4-3h5a2 2 0 0 0 2-2V4a2 2 0 0 0-2-2H4a2 2 0 0 0-2 2z"></path>
    </symbol>
    <symbol id="24x24_auto_detailing" height="24" viewBox="0 0 24 24" width="24">
      <path d="M19.5 11.004a2.5 2.5 0 1 1 0-5 2.5 2.5 0 0 1 0 5zm-3.453-2.04a6.11 6.11 0 0 0-1.344-.917 6.087 6.087 0 0 0-8.15 2.743 6.03 6.03 0 0 0-.55 3.65A3.41 3.41 0 0 0 4.9 16.614c-.248.03-.488.084-.723.152a8.468 8.468 0 0 1 .216-7.05c2.082-4.195 7.19-5.913 11.383-3.832.324.162.63.346.923.542a3.47 3.47 0 0 0-.7 2.077c0 .157.022.308.043.46zM15 4.552a1.276 1.276 0 1 1 0-2.55 1.276 1.276 0 0 1 0 2.55zM7.316 13.18c-.194.03-.375-.132-.35-.327a5.013 5.013 0 0 1 1.474-2.98c.142-.137.38-.09.473.083l.8 1.497a1 1 0 0 1-.724 1.46l-1.678.266zm5.35-1.03zm.076-3.683a5.017 5.017 0 0 1 1.6.523c.174.09.204.33.068.473l-1.177 1.224a1 1 0 0 1-1.61-.238l-.772-1.51c-.09-.178.01-.4.206-.437a5.002 5.002 0 0 1 1.69-.04zm3.834 6.072l-1.527-.746a1 1 0 0 1-.277-1.606l1.197-1.2c.14-.138.38-.114.476.06a5 5 0 0 1 .556 3.276c-.033.194-.253.297-.43.21zM19.5 12c.286 0 .56-.045.828-.11a8.443 8.443 0 0 1-.72 5.374c-.042.08-.09.156-.134.236-.07-.004-.134-.02-.204-.02-.19 0-.38.014-.566.043a5.47 5.47 0 0 0-1.17-1.533c.66-1.462.7-3.06.21-4.48A3.46 3.46 0 0 0 19.5 12zM5.992 17.64a2.39 2.39 0 0 1-.11-.68 2.413 2.413 0 0 1 2.414-2.412 2.406 2.406 0 0 1 2.4 2.27 4.476 4.476 0 0 1 3.137-1.283c2.03 0 3.725 1.353 4.283 3.2a2.78 2.78 0 0 1 1.154-.255 2.794 2.794 0 0 1 2.793 2.794c0 .253-.045.494-.108.728H2.085a3.444 3.444 0 0 1-.148-.946 3.472 3.472 0 0 1 3.473-3.473c.2 0 .392.026.582.058z"></path>
    </symbol>
    <symbol id="24x24_auto_repair" height="24" viewBox="0 0 24 24" width="24">
      <path d="M10.198 16.406l6.172-6.172a4.24 4.24 0 0 0 4.43-.986 4.237 4.237 0 0 0 1.068-4.183c-.042-.145-.234-.188-.34-.08L19.56 6.95a.5.5 0 0 1-.706 0l-1.768-1.767a.502.502 0 0 1 0-.708l1.967-1.966c.106-.11.063-.3-.08-.345a4.24 4.24 0 0 0-4.185 1.07 4.242 4.242 0 0 0-.98 4.45l-6.156 6.157a4.24 4.24 0 0 0-4.45.98 4.24 4.24 0 0 0-1.07 4.183c.042.145.234.188.34.08L4.44 17.12a.5.5 0 0 1 .704 0l1.768 1.77a.5.5 0 0 1 0 .707l-1.967 1.966c-.107.107-.064.3.08.34a4.238 4.238 0 0 0 4.185-1.07 4.24 4.24 0 0 0 .987-4.428z"></path>
    </symbol>
    <symbol id="24x24_auto_services" height="24" viewBox="0 0 24 24" width="24">
      <path d="M22 10.22V9.5a.5.5 0 0 0-.5-.5H19l-1.176-3.528C17.53 4.586 16.784 4 15.954 4h-7.91c-.83 0-1.573.586-1.868 1.472L5 9H2.5a.5.5 0 0 0-.5.5v.72a1 1 0 0 0 .757.97l.743.185-.3.225A3.002 3.002 0 0 0 2 14v5a1 1 0 0 0 1 1h2a1 1 0 0 0 1-1v-1h12v1a1 1 0 0 0 1 1h2a1 1 0 0 0 1-1v-5c0-.944-.445-1.833-1.2-2.4l-.3-.225.743-.186a1 1 0 0 0 .757-.97zM8.045 6h7.91l1.143 4H6.902l1.143-4zm-.958 9H5.182a1.182 1.182 0 0 1 0-2.363c.48 0 1.492.82 2.242 1.493a.5.5 0 0 1-.337.87zm11.73 0h-1.904a.5.5 0 0 1-.337-.87c.75-.674 1.76-1.493 2.242-1.493a1.182 1.182 0 0 1 0 2.363z"></path>
    </symbol>
    <symbol id="24x24_bars" height="24" viewBox="0 0 24 24" width="24">
      <path d="M16 19v2.5a1.5 1.5 0 0 1-1.5 1.5h-5A1.5 1.5 0 0 1 8 21.5V12c0-1.33.655-2.498 1.653-3.226L10.25 4h3.5l.597 4.774A3.985 3.985 0 0 1 16 12v1h-3v6h3zM13.524 2.876a.95.95 0 0 1-.762-.403.95.95 0 0 1-.762.403.95.95 0 0 1-.762-.403.95.95 0 0 1-.762.403.99.99 0 0 1-.976-.954L9.812 1h4.376l.312.922a.99.99 0 0 1-.976.954z"></path>
    </symbol>
    <symbol id="24x24_body_shop" height="24" viewBox="0 0 24 24" width="24">
      <path d="M18.984 11H17.2a.2.2 0 0 0-.2.2v.8h-3a1 1 0 0 0-2 0v1h-1v-1H9v-1.14A3.99 3.99 0 0 0 12 7V1.5a.5.5 0 0 0-.5-.5h-7a.5.5 0 0 0-.5.5V7a3.99 3.99 0 0 0 3 3.86V12H2.222l1.047 1.248a1 1 0 0 1 .19.936L1.35 21.05a1 1 0 0 0 .673 1.25l2.474.733a1 1 0 0 0 1.24-.664l1.527-4.96A2 2 0 0 1 9.176 16H11v-1h1v2.77a6.115 6.115 0 0 0 2.705 5.083 1 1 0 1 0 1.117-1.658A4.12 4.12 0 0 1 14 17.77V16h3v.8c0 .11.09.2.2.2h1.753L22 14.53v-1.06L18.984 11zM5.5 7V6h5v1a2.5 2.5 0 0 1-5 0z"></path>
    </symbol>
    <symbol id="24x24_bizhouse" height="24" viewBox="0 0 24 24" width="24">
      <path d="M19.125 13.375a2.874 2.874 0 0 1-2.375-1.257 2.874 2.874 0 0 1-4.75 0 2.873 2.873 0 0 1-4.75 0A2.873 2.873 0 0 1 2 10.5c0-.054.01-.107.026-.158l2-6A.5.5 0 0 1 4.5 4h15c.215 0 .406.138.475.342l2 6c.016.05.025.104.025.158a2.88 2.88 0 0 1-2.875 2.875zm-9.5 1A3.86 3.86 0 0 0 12 13.56a3.86 3.86 0 0 0 2.375.815 3.86 3.86 0 0 0 2.375-.815 3.853 3.853 0 0 0 2.25.804V20h-5v-4h-4v4H5v-5.636a3.853 3.853 0 0 0 2.25-.804 3.86 3.86 0 0 0 2.375.815z"></path>
    </symbol>
    <symbol id="24x24_burgers" height="24" viewBox="0 0 24 24" width="24">
      <path d="M19 16H5a2 2 0 0 1 0-4h14a2 2 0 0 1 0 4zm.5-5h-15a.5.5 0 0 1-.5-.5V10a7 7 0 0 1 7-7h2a7 7 0 0 1 7 7v.5a.5.5 0 0 1-.5.5zM7.308 7.59a.75.75 0 1 0 0 1.5.75.75 0 0 0 0-1.5zm2.424-2.58a.75.75 0 1 0 0 1.5.75.75 0 0 0 0-1.5zm2.638 2.58a.75.75 0 1 0 0 1.502.75.75 0 0 0 0-1.5zm2.38-2.582a.75.75 0 1 0 0 1.5.75.75 0 0 0 0-1.5zm2.417 2.583a.75.75 0 1 0 0 1.5.75.75 0 0 0 0-1.5zM4.5 17h15a.5.5 0 0 1 .5.5V19a2 2 0 0 1-2 2H6a2 2 0 0 1-2-2v-1.5a.5.5 0 0 1 .5-.5z"></path>
    </symbol>
    <symbol id="24x24_car_dealer" height="24" viewBox="0 0 24 24" width="24">
      <path d="M22.064 12.595h-2.888l-.814-2.44c-.232-.7-.818-1.16-1.47-1.16h-3.41V8.44c0-.346-.136-.68-.38-.925l-5.62-5.63a1.31 1.31 0 0 0-1.855.01L1.902 5.627a1.315 1.315 0 0 0-.008 1.858l5.102 5.11H4.908c-.217 0-.394.194-.422.433v.623c.028.4.274.747.625.84l1.4.334-.032.117c-.65.434-1.09 1.213-1.09 2.11v4.228c0 .4.324.723.723.723h1.254c.4 0 .723-.323.723-.722V20h10.8v1.277c0 .4.324.723.724.723h1.254c.4 0 .723-.324.723-.723V17.05c0-.892-.434-1.665-1.078-2.1l1.353-.46c.35-.095.596-.44.624-.84v-.622c-.028-.24-.204-.433-.422-.433zm-8.578-.902V11h3.553l.993 3h-9.05l.186-.505h2.517c.995 0 1.8-.807 1.798-1.802zM9.58 9.167a1.198 1.198 0 1 1 0 2.062 1.198 1.198 0 0 1 0-2.064zm.365 8.828H8.22c-.565 0-1.023-.403-1.023-.9s.458-.9 1.022-.9c.72 0 1.53.872 1.96 1.402.133.168-.004.398-.237.398zm8.8 0H17.02c-.234 0-.37-.23-.235-.398.428-.53 1.24-1.402 1.96-1.402.565 0 1.023.403 1.023.9s-.458.9-1.022.9z"></path>
    </symbol>
    <symbol id="24x24_car_wash" height="24" viewBox="0 0 24 24" width="24">
      <path d="M20 11H4a1 1 0 0 1-1-1V9a1 1 0 0 1 1-1h.025C4.285 3.822 7.758.5 12 .5c4.242 0 7.714 3.322 7.975 7.5H20a1 1 0 0 1 1 1v1a1 1 0 0 1-1 1zm-8-9.5C8.31 1.5 5.284 4.374 5.025 8h.232A2.325 2.325 0 0 1 7.58 5.747c.133 0 .262.018.39.04a1.63 1.63 0 0 1-.074-.457 1.616 1.616 0 0 1 3.23-.097 3 3 0 0 1 2.103-.86c1.36 0 2.5.907 2.872 2.147A1.857 1.857 0 0 1 18.73 8h.245C18.715 4.374 15.69 1.5 12 1.5zm6.13 20.652a1 1 0 0 1-.988.848H6.858a1 1 0 0 1-.988-.848L4.308 12h15.384L18.13 22.152z"></path>
    </symbol>
    <symbol id="24x24_chinese" height="24" viewBox="0 0 24 24" width="24">
      <path fill-rule="evenodd" d="M8.5 9H4.78l.012.058-3.562 4.304 1.54 1.276 2.527-3.054L7.182 21h9.638l1.883-9.416 2.527 3.054 1.54-1.276-3.562-4.304L19.22 9h-3.805l4.293-4.293-1.414-1.414L12.586 9H11l4.8-6.4-1.6-1.2L8.5 9zm-1.28 2h9.56l-.4 2H7.62l-.4-2zm.8 4h7.96l-.8 4H8.82l-.8-4z"></path>
    </symbol>
    <symbol id="24x24_contractor" height="24" viewBox="0 0 24 24" width="24">
      <path d="M21.376 17.9L16.1 12.624a1.067 1.067 0 0 0-1.508 0L11.577 9.61l.754-.754a1.067 1.067 0 0 0 0-1.508l-.28-.282c-.74-.74-.57-1.995.355-2.492 1.015-.546 2.386-.798 3.698.513l.754-.753a6.394 6.394 0 0 0-9.044 0L5.55 6.594a1.064 1.064 0 0 0 0 1.508l.377.377a.534.534 0 1 1-.754.75l-.375-.377a1.066 1.066 0 0 0-1.507 0l-1.13 1.13a.534.534 0 0 0 0 .754l3.77 3.77a.532.532 0 0 0 .753 0l1.13-1.133a1.066 1.066 0 0 0 0-1.507l-.377-.376a.534.534 0 1 1 .754-.753l.376.377c.416.416 1.09.416 1.507 0l3.016 3.015a1.066 1.066 0 0 0 0 1.506l5.274 5.274a2.13 2.13 0 0 0 3.016-3.014z"></path>
    </symbol>
    <symbol id="24x24_delivery" height="24" viewBox="0 0 24 24" width="24">
      <path d="M20.043 13c-2.757 0-5 2.243-5 5h-6a4 4 0 0 1-8 0h-1v-4a6 6 0 0 1 6-6h3v3h-1a1.5 1.5 0 0 0 0 3h3l3-4V6h1.75l-.986-2h-3.382V2h4.618l4.642 9.047a6.936 6.936 0 0 1 3.272 1.15l-1.12 1.657A4.968 4.968 0 0 0 20.044 13zM2.75 18c0 1.24 1.01 2.25 2.25 2.25S7.25 19.24 7.25 18h-4.5zM20 14a4 4 0 1 1 0 8 4 4 0 0 1 0-8zm0 6.25c1.24 0 2.25-1.01 2.25-2.25 0-1.242-1.01-2.25-2.25-2.25s-2.25 1.008-2.25 2.25c0 1.24 1.01 2.25 2.25 2.25z"></path>
    </symbol>
    <symbol id="24x24_eat" height="24" viewBox="0 0 24 24" width="24">
      <path d="M17.22 22a1.78 1.78 0 0 1-1.74-2.167l1.298-4.98L14 13l1.756-9.657A1.635 1.635 0 0 1 19 3.635V20.22A1.78 1.78 0 0 1 17.22 22zm-7.138-9.156l.697 7.168a1.79 1.79 0 1 1-3.56 0l.7-7.178A3.985 3.985 0 0 1 5 9V3a1 1 0 0 1 2 0v5.5c0 .28.22.5.5.5s.5-.22.5-.5V3a1 1 0 0 1 2 0v5.5c0 .28.22.5.5.5s.5-.22.5-.5V3a1 1 0 0 1 2 0v5.83c0 1.85-1.2 3.518-2.918 4.014z"></path>
    </symbol>
    <symbol id="24x24_chevron_down" height="24" viewBox="0 0 24 24" width="24">
      <path d="M18.364 9.525L16.95 8.11 12 13.06 7.05 8.11 5.636 9.526 12 15.89l6.364-6.365z"></path>
    </symbol>
    <symbol id="24x24_dry_cleaning" height="22" viewBox="0 0 22 22" width="22">
      <path d="M20.652 12.187L12 5.987V5.25a1 1 0 0 0-1-1 .752.752 0 0 1-.75-.75c0-.413.337-.75.75-.75s.75.337.75.75h2A2.752 2.752 0 0 0 11 .75 2.752 2.752 0 0 0 8.25 3.5a2.75 2.75 0 0 0 1.688 2.532l-8.59 6.155A1 1 0 0 0 1.93 14H7v7.5a.5.5 0 0 0 .5.5h7a.5.5 0 0 0 .5-.5V14h5.07a1 1 0 0 0 .582-1.813zM15 12v-.5a.5.5 0 0 0-.5-.5h-7a.5.5 0 0 0-.5.5v.5H5.042L11 7.73 16.958 12H15z"></path>
    </symbol>
    <symbol id="24x24_electrician" height="24" viewBox="0 0 24 24" width="24">
      <path d="M21 10h-4v4h4a1 1 0 0 1 0 2h-4v2a1 1 0 0 1-1 1h-2V5h2a1 1 0 0 1 1 1v2h4a1 1 0 0 1 0 2zM9.973 17.44l-1.948-1.88c-.372-.36-.87-.56-1.388-.56H6a1 1 0 0 1-1-1v-1H2v-2h3v-1a1 1 0 0 1 1-1h.637c.518 0 1.015-.2 1.388-.56l1.948-1.88a2 2 0 0 1 1.39-.56H13v12h-1.638a2 2 0 0 1-1.39-.56z"></path>
    </symbol>
    <symbol id="24x24_gyms" height="24" viewBox="0 0 24 24" width="24">
      <path d="M18.01 8.313a9 9 0 0 0-2.734-1.69l.384-2.03A.497.497 0 0 0 15.17 4H8.83a.497.497 0 0 0-.49.593l.384 2.03a9 9 0 0 0-2.733 1.69L5.395 5.15a3.483 3.483 0 0 1 .743-2.882A3.487 3.487 0 0 1 8.83 1h6.34c1.045 0 2.027.462 2.694 1.268a3.48 3.48 0 0 1 .743 2.883l-.598 3.164zM12 7a8 8 0 0 1 8 8 7.995 7.995 0 0 1-4.13 7H8.13A7.995 7.995 0 0 1 4 15a8 8 0 0 1 8-8z"></path>
    </symbol>
    <symbol id="24x24_home_cleaners" height="24" viewBox="0 0 24 24" width="24">
      <path fill-rule="evenodd" d="M18.117 19h-4.234l-.75-6h5.734l-.232 1.862-1.03-.64a1.366 1.366 0 0 0-1.908.476l2.744 1.71L18.12 19zM11 15.343a2.98 2.98 0 0 1-.88 2.122l-2.247 2.248-.952-.634 2.83-2.83h-.17a2 2 0 0 0-1.41.58l-1.85 1.85-1.2-.8L8 15h-.17a2 2 0 0 0-1.414.586L4.52 17.48l-.95-.635 2.965-2.966A2.983 2.983 0 0 1 8.657 13h.93L11 14.414v.93zm7.707-10.636a.414.414 0 1 1 .586.586L13.586 11h-1.172l6.293-6.293zm3 12.068l-1.202-.75.628-5.025h-4.72l4.294-4.293a2.417 2.417 0 0 0 0-3.414 2.417 2.417 0 0 0-3.414 0L9.586 11h-.93a4.97 4.97 0 0 0-3.535 1.465l-4.69 4.69 7.7 5.132 3.41-3.408c.104-.11.18-.23.276-.34L12.12 21h7.765l.428-3.43.69.43.708-1.226z"></path>
    </symbol>
    <symbol id="24x24_home_services" height="24" viewBox="0 0 24 24" width="24">
      <path d="M22.5 21H17v-6.8a.2.2 0 0 0-.2-.2h-4.6a.2.2 0 0 0-.2.2V21H3.5a.5.5 0 0 1-.5-.5v-8.15a.5.5 0 0 1 .33-.47l7.34-2.67a.5.5 0 0 0 .33-.47V4.486a.3.3 0 0 1 .434-.268l11.29 5.645a.5.5 0 0 1 .276.447V20.5a.5.5 0 0 1-.5.5zM10 14.2a.2.2 0 0 0-.2-.2H5.2a.2.2 0 0 0-.2.2v3.6c0 .11.09.2.2.2h4.6a.2.2 0 0 0 .2-.2v-3.6zm6-10.7a.5.5 0 0 1 .5-.5h4a.5.5 0 0 1 .5.5v3.906L16 5V3.5zM1.273 11.424A.2.2 0 0 1 1 11.238v-1.57a.2.2 0 0 1 .127-.187l8.6-3.37a.2.2 0 0 1 .273.186v1.57a.2.2 0 0 1-.127.187l-8.6 3.375z"></path>
    </symbol>
    <symbol id="24x24_hvac" height="24" viewBox="0 0 24 24" width="24">
      <path fill-rule="evenodd" d="M14.293 14.293l1.414 1.414c-.983.983-1.925 1.295-2.785 1.295-.86 0-1.637-.31-2.293-.573-1.22-.49-1.89-.76-2.926.274L6.29 15.29c1.967-1.966 3.766-1.246 5.08-.72 1.217.49 1.89.756 2.922-.278zM11.37 10.57c1.218.49 1.89.756 2.923-.277l1.414 1.414c-.983.983-1.925 1.295-2.785 1.295-.86 0-1.637-.31-2.293-.573-1.22-.49-1.89-.76-2.926.274L6.29 11.29c1.967-1.965 3.766-1.247 5.08-.72zM17 19H5V9.75l6-4.5 6 4.5V19zM11 2.75L2 9.5V12h1v9h16v-9h1V9.5l-9-6.75z"></path>
    </symbol>
    <symbol id="24x24_italian" height="24" viewBox="0 0 24 24" width="24">
      <path fill-rule="evenodd" d="M2.168 7.555a1 1 0 0 1 .277-1.387l1.89-1.26a2.99 2.99 0 0 1 3.328 0l.782.52a1 1 0 0 0 1.11 0l.78-.52a2.99 2.99 0 0 1 3.328 0l.782.52a1 1 0 0 0 1.11 0l.78-.52a2.99 2.99 0 0 1 3.328 0l1.892 1.26a1 1 0 1 1-1.11 1.664l-1.89-1.26a1 1 0 0 0-1.11 0l-.78.52a2.99 2.99 0 0 1-3.328 0l-.782-.52a1 1 0 0 0-1.11 0l-.78.52a2.99 2.99 0 0 1-3.328 0l-.782-.52a1 1 0 0 0-1.11 0l-1.89 1.26a1 1 0 0 1-1.387-.277zm0 4a1 1 0 0 1 .277-1.387l1.89-1.26a2.99 2.99 0 0 1 3.328 0l.782.52a1 1 0 0 0 1.11 0l.78-.52a2.99 2.99 0 0 1 3.328 0l.782.52a1 1 0 0 0 1.11 0l.78-.52a2.99 2.99 0 0 1 3.328 0l1.892 1.26a1 1 0 1 1-1.11 1.664l-1.89-1.26a1 1 0 0 0-1.11 0l-.78.52a2.99 2.99 0 0 1-3.328 0l-.782-.52a1 1 0 0 0-1.11 0l-.78.52a2.99 2.99 0 0 1-3.328 0l-.782-.52a1 1 0 0 0-1.11 0l-1.89 1.26a1 1 0 0 1-1.387-.277zm14.175 5.073A2.79 2.79 0 0 0 15.19 18H8.81a2.788 2.788 0 0 0-1.155-1.372L4.945 15h14.11l-2.712 1.628zM2 13v1.434c0 .698.372 1.355.97 1.715l3.658 2.19A.77.77 0 0 1 7 19v1h10v-1a.77.77 0 0 1 .372-.658l3.657-2.194a2.02 2.02 0 0 0 .97-1.716V13H2z"></path>
    </symbol>
    <symbol id="24x24_japanese" height="24" viewBox="0 0 24 24" width="24">
      <path fill-rule="evenodd" d="M13.055 15.545c-.003.014-.008.026-.012.04l-.358 1.073a1 1 0 0 1-1.253.637L7.977 16.19a1 1 0 0 1-.66-1.212l.265-.994a1.002 1.002 0 0 1 1.225-.707l.02.006 3.545 1.024a1 1 0 0 1 .683 1.238zM19 8v8c0 1.654-1.345 3-3 3H8c-1.654 0-3-1.346-3-3V8c0-1.654 1.346-3 3-3h4.98l-3.8 5.427 1.64 1.146L15.42 5H16c.553 0 1.065.16 1.51.422l-5.257 5.914 1.494 1.328 5.06-5.692c.12.322.193.666.193 1.028zm2.747-4.336l-1.494-1.328-1.396 1.57a4.985 4.985 0 0 0-2.09-.83l1.053-1.503L16.18.427 14.38 3H8C5.244 3 3 5.243 3 8v8c0 2.757 2.244 5 5 5h8c2.758 0 5-2.243 5-5V8c0-.97-.288-1.865-.766-2.632l1.514-1.704z"></path>
    </symbol>
    <symbol id="24x24_landscaping" height="24" viewBox="0 0 24 24" width="24">
      <path d="M3.1 7.61a3.388 3.388 0 0 0 3.555 1.07l5.415 6.453-2.69 2.257a.558.558 0 0 0-.07.785l3.13 3.73c.03.035.068.06.098.095h8.103c1.756-1.978 1.863-4.984.113-7.07l-3.13-3.73a.556.556 0 0 0-.784-.068l-2.69 2.257-5.416-6.455c.58-1.17.456-2.62-.437-3.685l-.95-1.13a.556.556 0 0 0-.784-.07L2.22 5.693a.558.558 0 0 0-.07.785l.95 1.13zm3.363-3.302l.505.6a1.308 1.308 0 0 1-2.003 1.68l-.504-.6 2.004-1.68z"></path>
    </symbol>
    <symbol id="24x24_locksmith" height="24" viewBox="0 0 24 24" width="24">
      <path d="M2.9 6.625c-.447 1.09-.447 2.935 0 4.023 1.416 3.45 4.945 4.608 8.1 3.516V16.5a.5.5 0 0 0 .5.5h2a.5.5 0 0 1 .5.5v2a.5.5 0 0 0 .5.5h2a.5.5 0 0 1 .5.5v1a.5.5 0 0 0 .5.5h3a.5.5 0 0 0 .5-.5v-3.434a.5.5 0 0 0-.14-.348l-6.71-6.92a5.885 5.885 0 0 0-1.338-6.355C9.886 1.545 4.684 2.273 2.9 6.625zm5.146 1.372a1.482 1.482 0 1 1 0-2.096c.578.58.578 1.52 0 2.098z"></path>
    </symbol>
    <symbol id="24x24_massage" height="24" viewBox="0 0 24 24" width="24">
      <path d="M24 5h-9V4a1 1 0 0 0-1-1H8a1 1 0 0 0-1 1v1H6v-.5a2.5 2.5 0 0 0-5 0V5H0v4h2v12h2v-3h16v3h2V9h2V5zM9 5h4v7H9V5zm11 11H4V9h3v4a1 1 0 0 0 1 1h6a1 1 0 0 0 1-1V9h5v7z"></path>
    </symbol>
    <symbol id="24x24_mexican" height="24" viewBox="0 0 24 24" width="24">
      <path fill-rule="evenodd" d="M20 15a.996.996 0 1 1-1.904.414A1.186 1.186 0 0 1 18 15v-1c0-2.286-.97-4.347-2.513-5.806C18.077 8.858 20 11.206 20 14v1zm-6.5 1L12 13v1.056c0 .62.145 1.233.422 1.79L12.5 16h-2L9 13v1.056c0 .62.145 1.233.422 1.79L9.5 16h-2L6 13v1.056c0 .62.145 1.233.422 1.79L6.5 16H5a1 1 0 0 1-1-1v-1c0-3.31 2.69-6 6-6s6 2.69 6 6v1c0 .187.02.374.057.56.01.054.027.106.04.16.023.093.04.187.07.28H13.5zM14 6a7.95 7.95 0 0 0-1.98.27A7.976 7.976 0 0 0 10 6c-4.41 0-8 3.59-8 8v1c0 1.654 1.346 3 3 3h14c1.654 0 3-1.346 3-3v-1c0-4.41-3.59-8-8-8z"></path>
    </symbol>
    <symbol id="24x24_more" height="24" viewBox="0 0 24 24" width="24">
      <path d="M20 14a2 2 0 1 1 0-4 2 2 0 0 1 0 4zm-8 0a2 2 0 1 1 0-4 2 2 0 0 1 0 4zm-8 0a2 2 0 1 1 0-4 2 2 0 0 1 0 4z"></path>
      </symbol>
      <symbol id="24x24_movers" height="24" viewBox="0 0 24 24" width="24">
        <path fill-rule="evenodd" d="M3 6.382v11.236l9 4.5 9-4.5V6.382l-9-4.5-9 4.5zM5.236 7.5L12 4.118 18.764 7.5l-2.382 1.19L13 7l-2 1 3.38 1.69L12 10.883 5.236 7.5zM17 14v-3.382l2-1v6.764l-6 3v-6.764l2-1V15l2-1zM5 16.382V9.618l6 3v6.764l-6-3z"></path>
      </symbol>
      <symbol id="24x24_nightlife" height="24" viewBox="0 0 24 24" width="24">
        <path d="M19.215 3H4.785C3.095 3 2.29 5.08 3.54 6.22L11 13v6H8a1 1 0 0 0 0 2h8a1 1 0 0 0 0-2h-3v-6l7.46-6.78C21.71 5.08 20.905 3 19.214 3zM15 4.5a1.5 1.5 0 1 1 0 3 1.5 1.5 0 0 1 0-3z"></path>
      </symbol>
    <symbol id="24x24_notification" height="24" viewBox="0 0 24 24" width="24">
      <path d="M20.984 17.177A1 1 0 0 1 20 18H4a1 1 0 0 1-.348-1.938c2.43-.9 3.74-4.605 3.74-7.634 0-1.75 1.07-3.253 2.608-3.97V4a2 2 0 0 1 4 0v.457c1.538.718 2.61 2.22 2.61 3.97 0 3.03 1.31 6.734 3.738 7.635a1 1 0 0 1 .636 1.115zM12 22a3 3 0 0 1-3-3h6a3 3 0 0 1-3 3z"></path>
    </symbol>
    <symbol id="24x24_oil_change" height="24" viewBox="0 0 24 24" width="24">
      <path d="M18.366 23H5.634A1.635 1.635 0 0 1 4 21.366V4.816c0-.45.366-.816.817-.816h6l1.01 1H17c1.654 0 3 1.346 3 3v13.366c0 .902-.732 1.634-1.634 1.634zM11.5 11a3.5 3.5 0 1 0 0 7 3.5 3.5 0 0 0 0-7zM18 8a1 1 0 0 0-1-1h-3.15L18 11.108V8zm-6.5 8.733a1.443 1.443 0 0 1-1.443-1.443c0-.797 1.443-3.023 1.443-3.023s1.443 2.226 1.443 3.023c0 .797-.646 1.443-1.443 1.443zM5 2a1 1 0 0 1 1-1h3a1 1 0 0 1 1 1v1H5V2z"></path>
    </symbol>
    <symbol id="24x24_parking" height="24" viewBox="0 0 24 24" width="24">
      <path d="M12 22C6.477 22 2 17.523 2 12S6.477 2 12 2s10 4.477 10 10-4.477 10-10 10zm4.308-13.282a3.13 3.13 0 0 0-.604-1.126 3.016 3.016 0 0 0-1.074-.794c-.442-.2-.974-.298-1.603-.298H8.5v11h2.207v-3.943h2.32c.63 0 1.16-.102 1.603-.3.44-.202.8-.467 1.074-.795.277-.328.477-.707.604-1.132.13-.427.192-.86.192-1.303 0-.45-.063-.888-.192-1.31zm-2.537 2.657a1.55 1.55 0 0 1-.612.238 4.115 4.115 0 0 1-.73.063H10.71V8.378h1.715c.253 0 .497.02.73.063.234.04.44.12.618.24.18.12.322.29.43.5.11.22.16.5.16.85s-.05.63-.16.85a1.26 1.26 0 0 1-.43.5z"></path>
    </symbol>
    <symbol id="24x24_phone_repair" height="24" viewBox="0 0 24 24" width="24">
      <path d="M17.5 22h-11A1.5 1.5 0 0 1 5 20.5v-17A1.5 1.5 0 0 1 6.5 2h11A1.5 1.5 0 0 1 19 3.5v17a1.5 1.5 0 0 1-1.5 1.5zM17 4.5a.5.5 0 0 0-.5-.5h-9a.5.5 0 0 0-.5.5v15a.5.5 0 0 0 .5.5h9a.5.5 0 0 0 .5-.5v-15zm-1.898 8.353a3.736 3.736 0 0 1-3.612.96L8 17.303v-5.31l.836-.836a3.736 3.736 0 0 1 .96-3.612 3.75 3.75 0 0 1 4.114-.798l-2.456 2.456 1.99 1.99L15.9 8.74a3.75 3.75 0 0 1-.798 4.115zm-3.1 3.537c.828 0 1.498.67 1.498 1.5a1.5 1.5 0 0 1-3 0c0-.83.673-1.5 1.5-1.5z"></path>
    </symbol>
    <symbol id="24x24_plumbers" height="24" viewBox="0 0 24 24" width="24">
      <path d="M13 16.5a.5.5 0 0 1-.5.5h-6a.5.5 0 0 1-.5-.5v-5.17c0-.2.12-.38.303-.46l6-2.57a.5.5 0 0 1 .697.458v.838l6.964-2.834a1 1 0 0 1 1.302.552l.765 1.893L13 12.84v3.66zm0-9.83a.5.5 0 0 1-.303.46l-6 2.57A.5.5 0 0 1 6 9.243V5.5a.5.5 0 0 1 .5-.5h6.456l3.978-1.607.374.927L13 6.06v.61zM17 19v2H2v-2a1 1 0 0 1 1-1h13a1 1 0 0 1 1 1zm5.03-5.5a1.5 1.5 0 0 1-3 0c0-.828 1.5-2.5 1.5-2.5s1.5 1.672 1.5 2.5z"></path>
    </symbol>
    <symbol id="24x24_search" height="24" viewBox="0 0 24 24" width="24">
      <path d="M20.753 19.34l-4.295-4.297A7.46 7.46 0 0 0 18 10.5a7.5 7.5 0 1 0-7.5 7.5 7.46 7.46 0 0 0 4.543-1.542l4.296 4.295a1 1 0 1 0 1.412-1.414zM10.5 16A5.506 5.506 0 0 1 5 10.5C5 7.467 7.467 5 10.5 5S16 7.467 16 10.5 13.533 16 10.5 16z"></path>
    </symbol>
    <symbol id="24x24_speech" height="24" viewBox="0 0 24 24" width="24">
      <path d="M18 3H6C4.34 3 3 4.34 3 6v7c0 1.66 1.34 3 3 3h2v5l5-5h5c1.66 0 3-1.34 3-3V6c0-1.66-1.34-3-3-3z"></path>
    </symbol>
    <symbol id="24x24_pencil" height="24" viewBox="0 0 24 24" width="24">
    <path d="M20.546 4.868l-1.414-1.414a1.994 1.994 0 0 0-1.415-.586c-.51 0-1.023.195-1.414.586L4.99 14.768l-2.122 6.364 6.364-2.122L20.546 7.697a2 2 0 0 0 0-2.83zM8.152 17.262l-2.12.707.706-2.123 8.858-8.86 1.414 1.416-8.858 8.858z"></path>
    </symbol>
    <symbol id="24x24_reservation" height="24" viewBox="0 0 24 24" width="24">
      <path d="M18 21H6a3 3 0 0 1-3-3V6a3 3 0 0 1 3-3 1 1 0 0 1 2 0h8a1 1 0 0 1 2 0 3 3 0 0 1 3 3v12a3 3 0 0 1-3 3zm1-13H5v10c0 .55.45 1 1 1h12c.55 0 1-.45 1-1V8zm-6 5h4v4h-4v-4z"></path>
    </symbol>
    <symbol id="24x24_star" height="24" viewBox="0 0 24 24" width="24">
      <path d="M12 1.5l2.61 6.727 6.89.53-5.278 4.688 1.65 7.055L12 16.67 6.13 20.5l1.648-7.055L2.5 8.757l6.89-.53L12 1.5z"></path>
    </symbol>
    <symbol id="24x24_salon" height="24" viewBox="0 0 24 24" width="24">
      <path d="M21.12 10.607l-5.635.683c-1.17.142-2.253.66-3.143 1.432A6.222 6.222 0 0 1 8.25 14.25a6.258 6.258 0 0 1-6.107-7.61c.492-2.33 2.362-4.222 4.69-4.734 2.078-.457 4.032.122 5.447 1.32.923.78 2.01 1.34 3.21 1.485l5.63.684a1 1 0 0 1 .88.993v3.228a1 1 0 0 1-.88.993zM8 5.5a2.5 2.5 0 1 0 0 5 2.5 2.5 0 0 0 0-5zm-1.808 9.445a7.144 7.144 0 0 0 4.85-.26c.235-.098.5.03.552.283l.11.56.527-.107a1 1 0 1 1 .395 1.963l-.526.106.662 3.315A1 1 0 0 1 11.78 22H7.82a1 1 0 0 1-.98-.804L5.677 15.39c-.06-.296.223-.533.514-.445z"></path>
    </symbol>
    <symbol id="24x24_shopping" height="24" viewBox="0 0 24 24" width="24">
      <path d="M16 6V5a3 3 0 0 0-3-3h-2a3 3 0 0 0-3 3v1H5v13a3 3 0 0 0 3 3h8a3 3 0 0 0 3-3V6h-3zm-6-1c0-.55.45-1 1-1h2c.55 0 1 .45 1 1v1h-4V5z"></path>
    </symbol>
    <symbol id="24x24_thai" height="24" viewBox="0 0 24 24" width="24">
      <path d="M21.62 16.69A10.625 10.625 0 0 1 16.43 22H7.474a10.628 10.628 0 0 1-5.19-5.31c-.143-.324.112-.69.467-.69h18.407c.355 0 .61.366.466.69zM13.97 15l5.602-5.602c.192-.192.512-.08.56.19.304 1.725-.206 3.707-1.445 5.412H13.97zm-2.17 0H3.933l10.13-10.13a.33.33 0 0 1 .56.198l.524 5.083 1.773-1.77a3.285 3.285 0 0 0 .002-4.633 3.288 3.288 0 0 0-4.632-.015L10.912 5.1c-.57.562-1.49.558-2.054-.008a.5.5 0 1 1 .71-.706.456.456 0 0 0 .64.003l1.378-1.368a4.286 4.286 0 0 1 6.044.018 4.286 4.286 0 0 1-.004 6.047L11.8 15zm.632-7.033a1 1 0 1 0 0 2 1 1 0 0 0 0-2z"></path>
    </symbol>
    <symbol id="24x24_towing" height="24" viewBox="0 0 24 24" width="24">
      <path d="M22.13 18c-.133-2.225-1.968-4-4.226-4s-4.092 1.775-4.224 4h-2.95c-.134-2.225-1.968-4-4.226-4S2.41 15.775 2.28 18H1v-5.933a1 1 0 0 1 .38-.784l1.347-1.067a1 1 0 0 1 .62-.216h6.757V4h5.035c.6 0 1.14.358 1.376.91l2.247 5.245 3.587 1.35a1 1 0 0 1 .65.937V18h-.87zM14.77 6H12v4h4.024L14.77 6zM5.803 8.03L4.13 4.496 1.352 7.27a.498.498 0 0 1-.707 0 .5.5 0 0 1 0-.706l3.03-3.03-.353-.744L4 2l5 4.922V9H4.854l.948-.97zm.7 6.97a3.25 3.25 0 1 1 0 6.5 3.25 3.25 0 0 1 0-6.5zm0 4.604a1.354 1.354 0 1 0 0-2.707 1.354 1.354 0 0 0 0 2.707zM17.903 15a3.25 3.25 0 1 1 0 6.5 3.25 3.25 0 0 1 0-6.5zm0 4.604a1.354 1.354 0 1 0 0-2.707 1.354 1.354 0 0 0 0 2.707z"></path>
    </symbol>
    <symbol id="48x48_chevron_left" height="48" viewBox="0 0 48 48" width="48">
      <path d="M29.414 5.992c.566 0 1.137.192 1.614.588 1.115.925 1.296 2.613.404 3.77L20.902 24l10.53 13.65c.892 1.156.71 2.844-.404 3.77-1.116.924-2.743.737-3.635-.42L15.57 25.675a2.76 2.76 0 0 1 0-3.35L27.394 6.998a2.548 2.548 0 0 1 2.02-1.008z"></path>
    </symbol>
    <symbol id="48x48_chevron_right" height="48" viewBox="0 0 48 48" width="48">
      <path d="M18.586 42.008a2.518 2.518 0 0 1-1.614-.588c-1.115-.925-1.296-2.613-.404-3.77L27.098 24l-10.53-13.65c-.892-1.156-.71-2.844.404-3.77 1.116-.924 2.743-.737 3.635.42L32.43 22.325a2.76 2.76 0 0 1 0 3.35L20.606 41.002a2.548 2.548 0 0 1-2.02 1.008z"></path>
    </symbol>
  </defs>
</svg>